HIERARCHY
ROOT root
{
	OFFSET 0.000000 0.000000 0.000000
	CHANNELS 6 Xposition Yposition Zposition Zrotation Yrotation Xrotation
	JOINT lhip
	{
		OFFSET 0.058581 -0.082280 -0.017664
		CHANNELS 3 Zrotation Yrotation Xrotation
		JOINT lknee
		{
			OFFSET 0.043451 -0.386469 0.008037
			CHANNELS 3 Zrotation Yrotation Xrotation
			JOINT lankle
			{
				OFFSET -0.014790 -0.426874 -0.037428
				CHANNELS 3 Zrotation Yrotation Xrotation
				JOINT ltoe
				{
					OFFSET 0.041054 -0.060286 0.122042
					CHANNELS 3 Zrotation Yrotation Xrotation
					End Site
					{
						OFFSET 0.000000 0.000000 0.000000
					}
				}
			}
		}
	}
	JOINT rhip
	{
		OFFSET -0.060310 -0.090513 -0.013543
		CHANNELS 3 Zrotation Yrotation Xrotation
		JOINT rknee
		{
			OFFSET -0.043257 -0.383688 -0.004843
			CHANNELS 3 Zrotation Yrotation Xrotation
			JOINT rankle
			{
				OFFSET 0.019056 -0.420046 -0.034562
				CHANNELS 3 Zrotation Yrotation Xrotation
				JOINT rtoe
				{
					OFFSET -0.034840 -0.062106 0.130323
					CHANNELS 3 Zrotation Yrotation Xrotation
					End Site
					{
						OFFSET 0.000000 0.000000 0.000000
					}
				}
			}
		}
	}
	JOINT lowerback
	{
		OFFSET 0.004439 0.124404 -0.038385
		CHANNELS 3 Zrotation Yrotation Xrotation
		JOINT upperback
		{
			OFFSET 0.004488 0.137956 0.026820
			CHANNELS 3 Zrotation Yrotation Xrotation
			JOINT chest
			{
				OFFSET -0.002265 0.056032 0.002855
				CHANNELS 3 Zrotation Yrotation Xrotation
				JOINT lowerneck
				{
					OFFSET -0.013390 0.211636 -0.033468
					CHANNELS 3 Zrotation Yrotation Xrotation
					JOINT upperneck
					{
						OFFSET 0.010113 0.088937 0.050410
						CHANNELS 3 Zrotation Yrotation Xrotation
						End Site
						{
							OFFSET 0.000000 0.000000 0.000000
						}
					}
				}
				JOINT lclavicle
				{
					OFFSET 0.071702 0.114000 -0.018898
					CHANNELS 3 Zrotation Yrotation Xrotation
					JOINT lshoulder
					{
						OFFSET 0.122921 0.045205 -0.019046
						CHANNELS 3 Zrotation Yrotation Xrotation
						JOINT lelbow
						{
							OFFSET 0.255332 -0.015649 -0.022946
							CHANNELS 3 Zrotation Yrotation Xrotation
							JOINT lwrist
							{
								OFFSET 0.265709 0.012698 -0.007375
								CHANNELS 3 Zrotation Yrotation Xrotation
								End Site
								{
									OFFSET 0.000000 0.000000 0.000000
								}
							}
						}
					}
				}
				JOINT rclavicle
				{
					OFFSET -0.082954 0.112472 -0.023707
					CHANNELS 3 Zrotation Yrotation Xrotation
					JOINT rshoulder
					{
						OFFSET -0.113228 0.046853 -0.008472
						CHANNELS 3 Zrotation Yrotation Xrotation
						JOINT relbow
						{
							OFFSET -0.260127 -0.014369 -0.031269
							CHANNELS 3 Zrotation Yrotation Xrotation
							JOINT rwrist
							{
								OFFSET -0.269108 0.006794 -0.006027
								CHANNELS 3 Zrotation Yrotation Xrotation
								End Site
								{
									OFFSET 0.000000 0.000000 0.000000
								}
							}
						}
					}
				}
			}
		}
	}
}
MOTION
Frames: 8
Frame Time: 0.033333
0.446006 0.808135 1.459816 108.136598 -4.376180 90.639740 4.240060 -12.057509 -16.699159 -1.872311 -12.788416 23.875852 -5.842198 2.680795 19.976294 0.000000 -0.000000 0.000000 6.962970 -1.783579 -10.637178 0.453889 -8.717600 28.507187 10.522227 -4.267032 36.267243 0.000000 -0.000000 0.000000 -4.995320 5.465543 12.230724 2.773861 -1.506066 0.152140 1.790486 -1.334769 1.883644 -1.541944 3.391994 9.816357 9.967083 8.273029 8.469015 -25.389361 -4.882104 4.429341 -61.224205 -11.572395 26.994384 -86.412479 -78.300355 108.584546 10.445572 -14.774441 -22.194377 21.285039 -0.274798 3.660031 63.312604 -5.329295 21.378741 -0.933485 87.337751 21.908217 4.004180 14.766194 -22.256244 
0.453013 0.809400 1.479453 127.170353 -5.731330 89.029351 5.101265 -11.355397 -18.733666 -2.323918 -10.760351 26.261068 -5.307779 2.592816 16.704401 0.000000 -0.000000 0.000000 6.239657 -1.836789 -9.735099 1.015156 -6.947647 27.439365 14.750083 -2.396991 38.238891 0.000000 -0.000000 0.000000 -4.337827 4.844983 13.157066 3.287195 -2.853953 0.823492 1.753212 -2.300495 2.335245 -1.426096 3.643198 9.513552 9.903873 8.342752 8.583089 -24.519862 -5.704625 4.575292 -59.981585 -12.819207 26.466184 -93.147842 -78.208511 115.087974 11.421858 -15.196140 -21.610946 21.057289 -1.133137 3.399313 62.138520 -6.971289 21.041497 14.279380 87.327434 36.063651 2.607348 14.861957 -23.066904 
0.461601 0.811633 1.486870 143.397305 -6.982153 86.789722 5.770852 -11.350501 -19.662334 -2.459427 -9.946381 29.455781 -2.160059 4.277036 12.294735 0.000000 -0.000000 0.000000 6.135495 0.617412 -10.095580 1.697399 -3.674422 28.727915 13.645581 -4.051725 34.666879 0.000000 -0.000000 0.000000 -4.869406 3.765110 14.855787 3.617349 -2.859769 0.553012 2.038217 -2.380081 3.171125 -0.416799 3.117544 8.029105 9.571788 7.866008 9.692113 -22.962262 -3.785509 3.264188 -57.115962 -12.868276 26.416710 -106.638323 -76.365955 126.240132 12.260016 -14.551353 -23.604272 21.090552 -1.333917 2.299421 61.272053 -7.528141 22.986456 -0.031314 86.485741 19.221954 5.890774 14.412349 -21.130867 
0.470206 0.813719 1.484043 158.091062 -8.457629 84.877349 6.842522 -12.191556 -21.157363 -3.003073 -8.099217 32.723231 -1.207603 6.540359 10.969588 0.000000 -0.000000 0.000000 4.707117 1.454315 -11.200558 1.526285 -1.696656 29.666784 12.741727 -4.711576 32.562845 0.000000 -0.000000 0.000000 -5.466820 3.935704 15.901594 4.077606 -3.131242 0.111176 2.087750 -2.695894 3.531236 0.195222 3.792189 7.960785 9.192624 7.053046 9.454625 -20.647524 -2.665737 3.141601 -51.797467 -12.879394 24.604272 -118.172176 -73.750509 137.513937 12.476221 -15.623027 -25.422874 20.914646 -1.112932 1.273803 60.585444 -6.770199 24.292322 4.516386 85.837988 23.880007 5.912889 14.013365 -19.770358 
0.481340 0.816976 1.470018 170.529202 -9.792677 83.209540 8.942104 -10.869739 -23.078243 -3.696928 -5.126391 36.072591 -2.553340 7.225744 10.319487 0.000000 -0.000000 0.000000 3.081798 2.068721 -11.884587 0.614387 1.503953 29.594923 12.683140 -3.831056 30.361200 0.000000 -0.000000 0.000000 -6.337806 4.826298 15.877906 4.171019 -2.864661 0.405372 1.886959 -2.428714 3.415732 0.351943 4.840332 8.441491 9.104401 6.310976 8.879164 -17.696152 -2.423035 3.477002 -45.645597 -11.689766 22.620715 -126.413617 -72.831957 144.514268 13.912174 -15.277295 -26.076131 20.903480 -0.660254 0.554207 60.063922 -6.009185 24.823169 7.310640 85.771776 25.293118 5.896378 14.131205 -19.990997 
0.491522 0.824023 1.443616 -177.953826 -11.305416 81.887307 10.561728 -9.623287 -26.251717 -4.655484 -3.792716 41.415374 -0.273066 8.954593 7.573378 0.000000 -0.000000 0.000000 0.359595 2.129496 -12.596439 0.313313 4.938358 29.750818 12.672495 -4.808193 28.330138 0.000000 -0.000000 0.000000 -7.634432 5.841670 15.650764 3.957396 -2.387337 -0.678225 1.580884 -2.256202 4.518237 0.605544 5.210485 7.722782 8.793038 5.434880 9.091237 -14.318379 -0.302747 3.217747 -39.007639 -10.921466 20.087460 -129.285479 -71.306260 145.620211 14.477712 -15.191708 -28.362880 20.677752 -1.174945 -0.656689 59.232265 -5.657211 25.919516 4.391165 86.951458 21.634679 7.359964 14.402631 -20.033621 
0.499256 0.834440 1.406104 -166.769741 -12.169892 80.565919 12.845330 -8.660099 -30.280760 -4.484285 -0.264040 47.378942 0.779876 11.036417 6.461789 0.000000 -0.000000 0.000000 -2.240668 1.811123 -12.166870 0.038448 8.183800 28.938583 13.375787 -5.015228 28.417619 0.000000 -0.000000 0.000000 -8.462176 6.883986 14.792270 4.081098 -2.451666 -1.304561 1.253617 -1.927330 5.360339 0.839413 5.712811 7.271882 8.571705 4.396770 9.043187 -10.652829 1.813956 3.187500 -33.807477 -9.315530 17.500446 -130.994996 -70.107033 145.818083 15.224520 -16.019739 -28.599924 19.485817 -2.249438 -1.772114 59.139895 -6.072923 26.611955 -0.775231 88.083132 16.310027 8.361734 13.858940 -18.338502 
0.504900 0.847839 1.356978 -156.023123 -12.703956 79.334852 15.521875 -7.103674 -35.004798 -4.123429 4.352766 53.713155 0.905510 11.994507 7.290822 0.000000 -0.000000 0.000000 -4.743372 1.175526 -10.277487 -0.200580 12.059498 26.484653 13.369762 -4.634692 28.423890 0.000000 -0.000000 0.000000 -9.591647 7.979694 13.478931 4.148414 -2.706361 -1.826339 1.246228 -1.337101 6.116851 0.589123 5.917252 7.269030 8.849283 3.837383 8.557098 -7.033616 4.034342 3.590219 -29.039838 -7.564506 15.197117 -134.303562 -68.215403 147.390494 16.216690 -15.745082 -30.742478 17.898561 -3.796991 -1.983283 59.051010 -7.024407 26.668254 28.159828 89.474205 44.724934 9.438952 14.455501 -19.355057 
